<svg version="1.1" xmlns="http://www.w3.org/2000/svg" xmlns:xlink="http://www.w3.org/1999/xlink" width="16" height="16"><defs><clipPath id="dlawrzCIzaLs"><path fill="none" stroke="none" d=" M 0 0 L 55 0 L 55 56 L 0 56 L 0 0 Z"/></clipPath></defs><g transform="scale(0.53,0.53)" clip-path="url(#dlawrzCIzaLs)"><g transform="translate(-81,-270.2)"><path fill="none" stroke="rgb(0,0,0)" paint-order="fill stroke markers" d=" M 450.5 115 L 471.5 115 C 472.880711874577 115 474 116.11928812542301 474 117.5 L 474 138.5 C 474 139.88071187457697 472.880711874577 141 471.5 141 L 450.5 141 C 449.119288125423 141 448 139.88071187457697 448 138.5 L 448 117.5 C 448 116.11928812542301 449.119288125423 115 450.5 115 Z" stroke-opacity="1" stroke-linecap="round" stroke-linejoin="round" stroke-miterlimit="10"/><path fill="rgb(255,255,255)" stroke="none" paint-order="stroke fill markers" fill-rule="evenodd" d=" M 451.5 116 L 470.5 116 C 471.880711874577 116 473 117.11928812542301 473 118.5 L 473 137.5 C 473 138.88071187457697 471.880711874577 140 470.5 140 L 451.5 140 C 450.119288125423 140 449 138.88071187457697 449 137.5 L 449 118.5 C 449 117.11928812542301 450.119288125423 116 451.5 116 Z" fill-opacity="1"/><path fill="none" stroke="rgb(68,68,68)" paint-order="fill stroke markers" d=" M 453 130 L 458 135 Z" stroke-opacity="1" stroke-linecap="round" stroke-linejoin="round" stroke-miterlimit="10" stroke-width="4"/><path fill="none" stroke="rgb(68,68,68)" paint-order="fill stroke markers" d=" M 458 135 L 468 121 Z" stroke-opacity="1" stroke-linecap="round" stroke-linejoin="round" stroke-miterlimit="10" stroke-width="4"/><text fill="rgb(0,0,0)" stroke="none" font-family="geogebra-sans-serif, sans-serif" font-size="32px" font-style="normal" font-weight="normal" text-decoration="normal" x="483" y="140" text-anchor="start" dominant-baseline="alphabetic" fill-opacity="1">Serif</text><g transform="scale(35,35)"><g transform="translate(2.2857142857142856,8.509820571428572)"><path fill="rgb(0,0,0)" stroke="none" paint-order="stroke fill markers" d=" M 0.334 -0.302 L 0.3 -0.165 Q 0.28300000000000003 -0.097 0.28300000000000003 -0.077 Q 0.28300000000000003 -0.025 0.32 -0.014 Q 0.328 -0.011 0.338 -0.011 Q 0.388 -0.011 0.429 -0.061 Q 0.456 -0.093 0.47100000000000003 -0.14200000000000002 Q 0.47400000000000003 -0.153 0.484 -0.153 Q 0.496 -0.153 0.496 -0.14300000000000002 Q 0.496 -0.11800000000000001 0.465 -0.07100000000000001 Q 0.41100000000000003 0.011 0.336 0.011 Q 0.268 0.011 0.23700000000000002 -0.046 Q 0.231 -0.055 0.228 -0.065 Q 0.20400000000000001 -0.017 0.162 0.002 Q 0.14300000000000002 0.011 0.123 0.011 Q 0.063 0.011 0.039 -0.024 Q 0.029 -0.037 0.029 -0.055 Q 0.029 -0.092 0.061 -0.107 Q 0.07200000000000001 -0.113 0.084 -0.113 Q 0.114 -0.113 0.12 -0.088 Q 0.121 -0.083 0.121 -0.078 Q 0.121 -0.044 0.08700000000000001 -0.028 Q 0.081 -0.025 0.074 -0.024 Q 0.095 -0.011 0.124 -0.011 Q 0.177 -0.011 0.20800000000000002 -0.082 Q 0.214 -0.097 0.219 -0.115 Q 0.273 -0.319 0.273 -0.353 Q 0.267 -0.41500000000000004 0.219 -0.42 Q 0.167 -0.42 0.124 -0.367 L 0.124 -0.366 Q 0.124 -0.365 0.123 -0.365 Q 0.108 -0.34500000000000003 0.096 -0.319 Q 0.091 -0.307 0.08700000000000001 -0.295 L 0.085 -0.289 Q 0.083 -0.278 0.07200000000000001 -0.278 Q 0.06 -0.278 0.06 -0.28800000000000003 Q 0.06 -0.313 0.092 -0.36 Q 0.146 -0.442 0.221 -0.442 Q 0.298 -0.442 0.329 -0.366 Q 0.361 -0.428 0.41400000000000003 -0.44 Q 0.424 -0.442 0.434 -0.442 Q 0.493 -0.442 0.517 -0.40900000000000003 Q 0.527 -0.395 0.527 -0.376 Q 0.527 -0.335 0.49 -0.321 Q 0.481 -0.318 0.47300000000000003 -0.318 Q 0.442 -0.318 0.436 -0.34500000000000003 Q 0.435 -0.34900000000000003 0.435 -0.353 Q 0.435 -0.383 0.464 -0.4 Q 0.47300000000000003 -0.405 0.483 -0.40700000000000003 Q 0.462 -0.42 0.433 -0.42 Q 0.365 -0.42 0.337 -0.314 Q 0.335 -0.308 0.334 -0.302 Z"/></g><g transform="translate(2.8577142857142857,8.096928571428572) scale(0.7,0.7)"><path fill="rgb(0,0,0)" stroke="none" paint-order="stroke fill markers" d=" M 0.261 -0.229 L 0.261 -0.229 L 0.275 -0.07100000000000001 Q 0.278 -0.034 0.249 -0.034 Q 0.231 -0.034 0.225 -0.05 Q 0.223 -0.055 0.224 -0.061 L 0.224 -0.066 L 0.23800000000000002 -0.23 L 0.112 -0.137 Q 0.1 -0.128 0.092 -0.128 Q 0.074 -0.128 0.067 -0.146 Q 0.065 -0.151 0.065 -0.156 Q 0.065 -0.17300000000000001 0.08600000000000001 -0.182 L 0.227 -0.25 L 0.08600000000000001 -0.317 Q 0.065 -0.326 0.065 -0.343 Q 0.065 -0.362 0.084 -0.369 Q 0.088 -0.371 0.092 -0.371 Q 0.098 -0.371 0.112 -0.361 L 0.23800000000000002 -0.269 L 0.224 -0.428 L 0.224 -0.439 Q 0.22 -0.455 0.23800000000000002 -0.462 L 0.23900000000000002 -0.463 L 0.24 -0.463 Q 0.245 -0.465 0.25 -0.465 Q 0.278 -0.465 0.275 -0.429 L 0.261 -0.269 L 0.387 -0.362 Q 0.399 -0.371 0.40700000000000003 -0.371 Q 0.425 -0.371 0.432 -0.353 Q 0.434 -0.34800000000000003 0.434 -0.343 Q 0.434 -0.326 0.41300000000000003 -0.317 L 0.271 -0.249 L 0.41600000000000004 -0.181 Q 0.434 -0.17200000000000001 0.434 -0.156 Q 0.434 -0.137 0.41500000000000004 -0.13 Q 0.41100000000000003 -0.128 0.40700000000000003 -0.128 Q 0.399 -0.128 0.37 -0.15 L 0.261 -0.229 Z"/></g></g><path fill="rgb(255,255,255)" stroke="none" paint-order="stroke fill markers" fill-rule="evenodd" d=" M 37.5 109 L 166.5 109 C 168.43299662440776 109 170 110.56700337559222 170 112.5 L 170 139.5 C 170 141.43299662440776 168.43299662440776 143 166.5 143 L 37.5 143 C 35.56700337559222 143 34 141.43299662440776 34 139.5 L 34 112.5 C 34 110.56700337559222 35.56700337559222 109 37.5 109 Z" fill-opacity="1"/><path fill="none" stroke="rgb(0,0,0)" paint-order="fill stroke markers" d=" M 37.5 109 L 166.5 109 C 168.43299662440776 109 170 110.56700337559222 170 112.5 L 170 139.5 C 170 141.43299662440776 168.43299662440776 143 166.5 143 L 37.5 143 C 35.56700337559222 143 34 141.43299662440776 34 139.5 L 34 112.5 C 34 110.56700337559222 35.56700337559222 109 37.5 109 Z" stroke-opacity="1" stroke-linecap="round" stroke-linejoin="round" stroke-miterlimit="10"/><text fill="rgb(0,0,0)" stroke="none" font-family="geogebra-sans-serif, sans-serif" font-size="24px" font-style="normal" font-weight="normal" text-decoration="normal" x="44" y="136" text-anchor="start" dominant-baseline="alphabetic" fill-opacity="1">Show SVG</text><path fill="rgb(255,255,255)" stroke="none" paint-order="stroke fill markers" fill-rule="evenodd" d=" M 204.5 106 L 380.5 106 C 382.4329966244078 106 384 107.56700337559222 384 109.5 L 384 136.5 C 384 138.43299662440776 382.4329966244078 140 380.5 140 L 204.5 140 C 202.56700337559224 140 201 138.43299662440776 201 136.5 L 201 109.5 C 201 107.56700337559222 202.56700337559224 106 204.5 106 Z" fill-opacity="1"/><path fill="none" stroke="rgb(0,0,0)" paint-order="fill stroke markers" d=" M 204.5 106 L 380.5 106 C 382.4329966244078 106 384 107.56700337559222 384 109.5 L 384 136.5 C 384 138.43299662440776 382.4329966244078 140 380.5 140 L 204.5 140 C 202.56700337559224 140 201 138.43299662440776 201 136.5 L 201 109.5 C 201 107.56700337559222 202.56700337559224 106 204.5 106 Z" stroke-opacity="1" stroke-linecap="round" stroke-linejoin="round" stroke-miterlimit="10"/><text fill="rgb(0,0,0)" stroke="none" font-family="geogebra-sans-serif, sans-serif" font-size="24px" font-style="normal" font-weight="normal" text-decoration="normal" x="211" y="133" text-anchor="start" dominant-baseline="alphabetic" fill-opacity="1">Download SVG</text><path fill="rgb(255,255,255)" stroke="none" paint-order="stroke fill markers" fill-rule="evenodd" d=" M 212 30 L 722 30 C 724.2091389993232 30 726 31.790861000676827 726 34 L 726 75 C 726 77.20913899932317 724.2091389993232 79 722 79 L 212 79 C 209.7908610006768 79 208 77.20913899932317 208 75 L 208 34 C 208 31.790861000676827 209.7908610006768 30 212 30 Z" fill-opacity="1"/><path fill="none" stroke="rgb(0,0,0)" paint-order="fill stroke markers" d=" M 212 30 L 722 30 C 724.2091389993232 30 726 31.790861000676827 726 34 L 726 75 C 726 77.20913899932317 724.2091389993232 79 722 79 L 212 79 C 209.7908610006768 79 208 77.20913899932317 208 75 L 208 34 C 208 31.790861000676827 209.7908610006768 30 212 30 Z" stroke-opacity="1" stroke-linecap="round" stroke-linejoin="round" stroke-miterlimit="10"/><text fill="rgb(0,0,0)" stroke="none" font-family="geogebra-sans-serif, sans-serif" font-size="32px" font-style="normal" font-weight="normal" text-decoration="normal" x="210" y="66" text-anchor="start" dominant-baseline="alphabetic" fill-opacity="1">x^*</text><text fill="rgb(0,0,0)" stroke="none" font-family="geogebra-sans-serif, sans-serif" font-size="32px" font-style="normal" font-weight="normal" text-decoration="normal" x="30" y="66" text-anchor="start" dominant-baseline="alphabetic" fill-opacity="1">Enter LaTeX</text></g></g></svg>